HIERARCHY
ROOT joint_Root
{
	OFFSET 0.0 0.0 0.0
	CHANNELS 6 Xposition Yposition Zposition Zrotation Xrotation Yrotation 
	JOINT Hips
	{
		OFFSET -0.726466 93.3139 -2.00062
		CHANNELS 6 Xposition Yposition Zposition Zrotation Xrotation Yrotation 
		JOINT Spine
		{
			OFFSET 15.7357 0.0 0.0
			CHANNELS 6 Xposition Yposition Zposition Zrotation Xrotation Yrotation 
			JOINT Chest
			{
				OFFSET 8.98455 -0.406207 0.0
				CHANNELS 6 Xposition Yposition Zposition Zrotation Xrotation Yrotation 
				JOINT Neck
				{
					OFFSET 16.3773 0.0 0.0
					CHANNELS 6 Xposition Yposition Zposition Zrotation Xrotation Yrotation 
					JOINT Head
					{
						OFFSET 6.45672 0.0 0.0
						CHANNELS 6 Xposition Yposition Zposition Zrotation Xrotation Yrotation 
						End Site
						{
							OFFSET 0.0 0.0 0.0
						}
					}
				}
				JOINT Shoulder_L
				{
					OFFSET 12.9942 -0.242716 4.98039
					CHANNELS 6 Xposition Yposition Zposition Zrotation Xrotation Yrotation 
					JOINT UpperArm_L
					{
						OFFSET 5.34809 0.0 0.0
						CHANNELS 6 Xposition Yposition Zposition Zrotation Xrotation Yrotation 
						JOINT LowerArm_L
						{
							OFFSET 24.3286 1.87007e-05 0.0
							CHANNELS 6 Xposition Yposition Zposition Zrotation Xrotation Yrotation 
							JOINT Hand_L
							{
								OFFSET 22.2916 0.0 0.0
								CHANNELS 6 Xposition Yposition Zposition Zrotation Xrotation Yrotation 
								End Site
								{
									OFFSET 0.0 0.0 0.0
								}
							}
						}
					}
				}
				JOINT Shoulder_R
				{
					OFFSET 12.9945 -0.242716 -4.98039
					CHANNELS 6 Xposition Yposition Zposition Zrotation Xrotation Yrotation 
					JOINT UpperArm_R
					{
						OFFSET -5.34813 0.0 0.0
						CHANNELS 6 Xposition Yposition Zposition Zrotation Xrotation Yrotation 
						JOINT LowerArm_R
						{
							OFFSET -24.3289 0.000322201 0.0
							CHANNELS 6 Xposition Yposition Zposition Zrotation Xrotation Yrotation 
							JOINT Hand_R
							{
								OFFSET -22.2915 -0.000108084 0.0
								CHANNELS 6 Xposition Yposition Zposition Zrotation Xrotation Yrotation 
								End Site
								{
									OFFSET 0.0 0.0 0.0
								}
							}
						}
					}
				}
			}
		}
		JOINT UpperLeg_L
		{
			OFFSET -2.19248 -6.46944 0.0
			CHANNELS 6 Xposition Yposition Zposition Zrotation Xrotation Yrotation 
			JOINT LowerLeg_L
			{
				OFFSET 39.0811 0.0 -1.23785e-05
				CHANNELS 6 Xposition Yposition Zposition Zrotation Xrotation Yrotation 
				JOINT Foot_L
				{
					OFFSET 40.9854 0.0 -1.26872e-05
					CHANNELS 6 Xposition Yposition Zposition Zrotation Xrotation Yrotation 
					JOINT Toes_L
					{
						OFFSET 11.7543 0.0 0.0
						CHANNELS 6 Xposition Yposition Zposition Zrotation Xrotation Yrotation 
						End Site
						{
							OFFSET 0.0 0.0 0.0
						}
					}
				}
			}
		}
		JOINT UpperLeg_R
		{
			OFFSET -2.19251 6.46944 0.0
			CHANNELS 6 Xposition Yposition Zposition Zrotation Xrotation Yrotation 
			JOINT LowerLeg_R
			{
				OFFSET -39.0811 -0.00228153 -0.0401928
				CHANNELS 6 Xposition Yposition Zposition Zrotation Xrotation Yrotation 
				JOINT Foot_R
				{
					OFFSET -40.9854 0.0 0.0
					CHANNELS 6 Xposition Yposition Zposition Zrotation Xrotation Yrotation 
					JOINT Toes_R
					{
						OFFSET -11.7543 0.0 0.0
						CHANNELS 6 Xposition Yposition Zposition Zrotation Xrotation Yrotation 
						End Site
						{
							OFFSET 0.0 0.0 0.0
						}
					}
				}
			}
		}
	}
}
MOTION
Frames:	6
Frame Time:	0.0333333
0.000000 0.000000 0.000000 0.000000 0.000000 -0.000000 -1.440410 92.064300 -1.325420 87.473200 -0.097698 2.329840 15.735700 0.000005 -0.000001 85.987600 85.561900 -85.769500 8.984550 -0.406207 -0.000000 1.089810 -0.633535 0.441801 16.377300 -0.000001 -0.000001 1.520100 -1.862320 -0.811816 6.456720 -0.000001 -0.000000 0.084103 -1.288210 6.091640 12.994200 -0.242716 4.980390 -89.641100 -1.132300 -72.411000 5.348090 -0.000007 -0.000001 -67.924800 35.718600 -15.257300 24.328600 0.000019 0.000005 3.197710 7.021240 -24.562400 22.291600 -0.000001 0.000005 7.361620 5.529490 -7.770790 12.994500 -0.242716 -4.980390 87.672900 6.971240 -71.488500 -5.348130 -0.000001 -0.000004 -65.840600 37.248300 -13.853300 -24.328900 0.000322 -0.000009 1.154970 3.079050 -20.589900 -22.291500 -0.000108 -0.000004 13.329800 5.485180 -5.947740 -2.192480 -6.469440 -0.000000 -167.928000 -16.176100 -3.501630 39.081100 -0.000007 -0.000012 -0.185899 0.493054 20.658500 40.985400 -0.000006 -0.000013 -6.980260 3.445460 -62.636000 11.754300 -0.000000 0.000003 -0.000160 -0.001531 -16.635700 -2.192510 6.469440 -0.000001 174.619000 21.975500 179.003000 -39.081100 -0.002282 -0.040193 -0.066244 0.209025 18.408500 -40.985400 0.000008 0.000006 -4.219300 4.389750 -62.768600 -11.754300 -0.000006 -0.000006 -0.004849 -0.059996 -19.014100
0.000000 0.000000 0.000000 0.000000 0.000000 -0.000000 -1.451020 92.068500 -1.376710 87.481100 -0.060555 2.224800 15.735700 0.000005 -0.000001 85.930400 85.589500 -85.732900 8.984550 -0.406207 -0.000000 1.033960 -0.637357 0.400322 16.377300 -0.000001 -0.000001 1.094190 -1.820850 -0.854453 6.456720 -0.000001 -0.000000 -0.175353 -1.358370 6.345330 12.994200 -0.242716 4.980390 -89.633500 -1.141010 -72.189300 5.348090 -0.000007 -0.000001 -68.418700 31.904500 -14.863800 24.328600 0.000019 0.000005 3.397150 7.455520 -24.582900 22.291600 -0.000001 0.000005 9.186730 5.532500 -7.904750 12.994500 -0.242716 -4.980390 87.685800 6.870310 -71.333400 -5.348130 -0.000001 -0.000004 -66.305700 34.774300 -13.304200 -24.328900 0.000322 -0.000009 1.392090 3.612010 -21.108200 -22.291500 -0.000108 -0.000004 15.037200 5.481060 -5.786270 -2.192480 -6.469440 -0.000000 -167.979000 -16.188900 -3.660760 39.081100 -0.000007 -0.000012 -0.183385 0.486461 20.655600 40.985400 -0.000006 -0.000013 -6.970210 3.456040 -62.587600 11.754300 -0.000000 0.000003 -0.000128 -0.001271 -16.626000 -2.192510 6.469440 -0.000001 174.671000 22.044100 178.843000 -39.081100 -0.002282 -0.040193 -0.066810 0.210415 18.433900 -40.985400 0.000008 0.000006 -4.186690 4.405590 -62.751400 -11.754300 -0.000006 -0.000006 -0.004889 -0.060390 -19.030100
0.000000 0.000000 0.000000 0.000000 0.000000 -0.000000 -1.493560 92.090300 -1.441800 87.449000 0.000626 2.136530 15.735700 0.000005 -0.000001 85.655900 85.642700 -85.464300 8.984550 -0.406207 -0.000000 0.924755 -0.671274 0.388414 16.377300 -0.000001 -0.000001 0.754061 -1.782000 -0.943070 6.456720 -0.000001 -0.000000 -0.407536 -1.375930 6.578380 12.994200 -0.242716 4.980390 -89.597800 -1.238220 -72.003700 5.348090 -0.000007 -0.000001 -68.073500 27.731600 -14.908000 24.328600 0.000019 0.000005 3.062850 6.809070 -24.289600 22.291600 -0.000001 0.000005 10.513100 5.536540 -8.084670 12.994500 -0.242716 -4.980390 87.726600 6.656080 -71.093500 -5.348130 -0.000001 -0.000004 -66.538300 31.324600 -12.950000 -24.328900 0.000322 -0.000009 1.132900 2.906530 -21.323800 -22.291500 -0.000108 -0.000004 16.313600 5.482770 -5.854710 -2.192480 -6.469440 -0.000000 -167.968000 -16.129600 -3.752000 39.081100 -0.000007 -0.000012 -0.181129 0.484064 20.515300 40.985400 -0.000006 -0.000013 -6.989590 3.444800 -62.459300 11.754300 -0.000000 0.000003 -0.000159 -0.001526 -16.635500 -2.192510 6.469440 -0.000001 174.819000 22.067900 178.727000 -39.081100 -0.002282 -0.040193 -0.062311 0.197695 18.366300 -40.985400 0.000008 0.000006 -4.009620 4.290620 -62.702400 -11.754300 -0.000006 -0.000006 -0.004843 -0.059935 -19.011600
0.000000 0.000000 0.000000 0.000000 0.000000 -0.000000 -1.525880 92.099100 -1.489710 87.466500 0.031451 2.116640 15.735700 0.000005 -0.000001 85.333200 85.676100 -85.154400 8.984550 -0.406207 -0.000000 0.854364 -0.714111 0.362576 16.377300 -0.000001 -0.000001 0.401694 -1.715900 -0.986600 6.456720 -0.000001 -0.000000 -0.612157 -1.288300 6.654000 12.994200 -0.242716 4.980390 -89.549500 -1.378220 -71.897100 5.348090 -0.000007 -0.000001 -66.893400 22.969400 -15.356500 24.328600 0.000019 0.000005 2.882810 6.483330 -24.035400 22.291600 -0.000001 0.000005 11.243600 5.535820 -8.053920 12.994500 -0.242716 -4.980390 87.750700 6.505260 -70.879100 -5.348130 -0.000001 -0.000004 -65.908100 26.920800 -13.121300 -24.328900 0.000322 -0.000009 0.791108 2.026070 -21.360000 -22.291500 -0.000108 -0.000004 16.152800 5.469850 -5.364450 -2.192480 -6.469440 -0.000000 -167.967000 -16.129400 -3.761650 39.081100 -0.000007 -0.000012 -0.182476 0.490464 20.407900 40.985400 -0.000006 -0.000013 -7.013350 3.462060 -62.359300 11.754300 -0.000000 0.000003 -0.000170 -0.001611 -16.638600 -2.192510 6.469440 -0.000001 174.841000 22.071600 178.686000 -39.081100 -0.002282 -0.040193 -0.061607 0.195772 18.349100 -40.985400 0.000008 0.000006 -4.003800 4.283950 -62.676700 -11.754300 -0.000006 -0.000006 -0.004813 -0.059648 -18.999900
0.000000 0.000000 0.000000 0.000000 0.000000 -0.000000 -1.559940 92.104800 -1.548020 87.404100 0.051942 2.079580 15.735700 0.000005 -0.000001 84.738500 85.726200 -84.542300 8.984550 -0.406207 -0.000000 0.747027 -0.795567 0.397296 16.377300 -0.000001 -0.000001 0.059105 -1.613640 -0.997705 6.456720 -0.000001 -0.000000 -0.773214 -1.168410 6.692200 12.994200 -0.242716 4.980390 -89.485200 -1.570700 -71.851800 5.348090 -0.000007 -0.000001 -64.975200 17.626100 -16.067100 24.328600 0.000019 0.000005 2.496350 5.687270 -23.745800 22.291600 -0.000001 0.000005 11.572500 5.536510 -8.084810 12.994500 -0.242716 -4.980390 87.756700 6.441340 -70.752000 -5.348130 -0.000001 -0.000004 -64.095700 22.333800 -14.090800 -24.328900 0.000322 -0.000009 0.543490 1.432230 -20.819400 -22.291500 -0.000108 -0.000004 16.290700 5.455660 -4.843140 -2.192480 -6.469440 -0.000000 -167.892000 -16.165500 -3.849350 39.081100 -0.000007 -0.000012 -0.182079 0.489411 20.407300 40.985400 -0.000006 -0.000013 -7.018790 3.548110 -62.301000 11.754300 -0.000000 0.000003 -0.000167 -0.001594 -16.638000 -2.192510 6.469440 -0.000001 174.987000 22.061400 178.581000 -39.081100 -0.002282 -0.040193 -0.059553 0.189329 18.371700 -40.985400 0.000008 0.000006 -3.838630 4.213480 -62.672200 -11.754300 -0.000006 -0.000006 -0.004757 -0.059098 -18.977500
0.000000 0.000000 0.000000 0.000000 0.000000 -0.000000 -1.576810 92.099600 -1.586050 87.391700 0.010801 2.133300 15.735700 0.000005 -0.000001 84.223700 85.754200 -84.027100 8.984550 -0.406207 -0.000000 0.684148 -0.866497 0.397986 16.377300 -0.000001 -0.000001 -0.282333 -1.508470 -1.030050 6.456720 -0.000001 -0.000000 -0.889015 -1.060750 6.820320 12.994200 -0.242716 4.980390 -89.385600 -1.870060 -71.809500 5.348090 -0.000007 -0.000001 -62.632300 11.699500 -17.085600 24.328600 0.000019 0.000005 2.418990 5.613690 -23.357300 22.291600 -0.000001 0.000005 12.110200 5.538220 -8.161580 12.994500 -0.242716 -4.980390 87.790800 6.318090 -70.682300 -5.348130 -0.000001 -0.000004 -61.644500 17.045100 -15.614300 -24.328900 0.000322 -0.000009 0.586200 1.634200 -19.769600 -22.291500 -0.000108 -0.000004 17.279600 5.450720 -4.667760 -2.192480 -6.469440 -0.000000 -167.868000 -16.191200 -3.843010 39.081100 -0.000007 -0.000012 -0.181315 0.485505 20.478800 40.985400 -0.000006 -0.000013 -7.021150 3.503190 -62.316100 11.754300 -0.000000 0.000003 -0.000161 -0.001545 -16.636200 -2.192510 6.469440 -0.000001 174.969000 22.086000 178.613000 -39.081100 -0.002282 -0.040193 -0.063512 0.201231 18.373400 -40.985400 0.000008 0.000006 -3.978910 4.299810 -62.629200 -11.754300 -0.000006 -0.000006 -0.004564 -0.057188 -18.899700
